<?xml version="1.0" encoding="UTF-8"?>
<svg id="Layer_1" data-name="Layer 1" xmlns="http://www.w3.org/2000/svg" xmlns:xlink="http://www.w3.org/1999/xlink" viewBox="0 0 500 500">
  <defs>
    <style>
      .cls-1 {
        fill: url(#linear-gradient);
      }
    </style>
    <linearGradient id="linear-gradient" x1="40.76" y1="248.09" x2="472.41" y2="248.09" gradientUnits="userSpaceOnUse">
      <stop offset="0" stop-color="#22205e"/>
      <stop offset="1" stop-color="#ada7d3"/>
    </linearGradient>
  </defs>
  <path class="cls-1" d="M307.57,32.27h-101.97c-90.66,0-164.84,74.18-164.84,164.84v101.97c0,90.66,74.18,164.84,164.84,164.84h101.97c90.66,0,164.84-74.18,164.84-164.84v-101.97c0-90.66-74.18-164.84-164.84-164.84ZM347.05,255.46l-47.16,66.84c-1.68,2.39-1.68,5.58,0,7.96l37.5,53.15c3.97,5.63-1.84,12.96-8.22,10.39l-76.59-30.88c-1.66-.67-3.51-.67-5.16,0l-76.59,30.88c-6.39,2.58-12.19-4.76-8.22-10.39l37.5-53.15c1.68-2.39,1.68-5.58,0-7.96l-47.16-66.84c-2.15-3.04-1.49-7.24,1.48-9.49l88.29-66.74c3.65-2.76,3.65-8.25,0-11.02l-77.2-58.36c-5.28-3.99-2.46-12.41,4.16-12.41h160.64c6.62,0,9.45,8.42,4.16,12.41l-77.2,58.36c-3.65,2.76-3.65,8.25,0,11.02l88.29,66.74c2.97,2.25,3.63,6.45,1.48,9.49Z"/>
</svg>